<?xml version="1.0" standalone="no"?><svg xmlns="http://www.w3.org/2000/svg" viewBox="0 0 1440 320"><path fill="#0099ff" fill-opacity="1" d="M0,256L21.8,224C43.6,192,87,128,131,133.3C174.5,139,218,213,262,234.7C305.5,256,349,224,393,181.3C436.4,139,480,85,524,90.7C567.3,96,611,160,655,170.7C698.2,181,742,139,785,128C829.1,117,873,139,916,138.7C960,139,1004,117,1047,96C1090.9,75,1135,53,1178,85.3C1221.8,117,1265,203,1309,224C1352.7,245,1396,203,1418,181.3L1440,160L1440,0L1418.2,0C1396.4,0,1353,0,1309,0C1265.5,0,1222,0,1178,0C1134.5,0,1091,0,1047,0C1003.6,0,960,0,916,0C872.7,0,829,0,785,0C741.8,0,698,0,655,0C610.9,0,567,0,524,0C480,0,436,0,393,0C349.1,0,305,0,262,0C218.2,0,175,0,131,0C87.3,0,44,0,22,0L0,0Z"></path></svg>